<svg xmlns="http://www.w3.org/2000/svg" xmlns:xlink="http://www.w3.org/1999/xlink" width="7592" height="8103.475" viewBox="0 0 7592 8103.475">
  <defs>
    <linearGradient id="linear-gradient" x1="0.822" y1="0.047" x2="0" y2="1.124" gradientUnits="objectBoundingBox">
      <stop offset="0" stop-color="#0ae0a8"/>
      <stop offset="1" stop-color="#1574f6"/>
    </linearGradient>
  </defs>
  <g id="Component_33_1" data-name="Component 33 – 1" transform="translate(0)">
    <path id="Union_13" data-name="Union 13" d="M3302.8,8103.226l-.23-.044-.041-.026c-.114-.073-.289-.191-.543-.358.549.185,1.127.374,1.686.559l.348.116v0C3303.44,8103.356,3303.033,8103.275,3302.8,8103.226Zm-12.89-8.427-.834-.558-1.621-1.082-.045-.03c-56.513-2.43-113.684-6.327-169.926-11.582-55.811-5.216-112.189-11.909-167.565-19.894-55-7.93-110.511-17.35-165-28-54.1-10.573-108.691-22.651-162.247-35.9-53.222-13.168-106.814-27.837-159.29-43.6-52.16-15.668-104.691-32.863-156.132-51.1-51.131-18.132-102.533-37.778-152.778-58.394-50.033-20.535-100.239-42.568-149.223-65.492-48.793-22.834-97.736-47.184-145.469-72.377-47.568-25.108-95.181-51.711-141.517-79.068-46.238-27.3-92.454-56.083-137.365-85.554-44.78-29.381-89.534-60.279-133.019-91.834-43.316-31.437-86.538-64.379-128.467-97.915-41.807-33.442-83.431-68.363-123.716-103.794-40.247-35.4-80.209-72.229-118.772-109.468s-76.785-75.9-113.625-114.939-73.268-79.479-108.278-120.21c-35.059-40.784-69.624-82.933-102.737-125.276-33.151-42.391-65.784-86.176-96.993-130.141-31.238-44.007-61.873-89.363-91.053-134.8-29.253-45.563-57.822-92.417-84.911-139.264-27.178-47-53.613-95.291-78.57-143.521-25.033-48.372-49.269-98.022-72.032-147.572-22.83-49.689-44.8-100.636-65.294-151.425-20.565-50.955-40.2-103.127-58.359-155.076-18.228-52.144-35.464-105.478-51.223-158.519-15.836-53.308-30.6-107.731-43.887-161.765-13.363-54.354-25.594-109.8-36.355-164.805C62.776,5236.48,53.145,5180.077,44.981,5124.2c-8.22-56.276-15.182-113.568-20.689-170.28-5.548-57.117-9.774-115.228-12.56-172.716C8.924,4723.295,7.5,4664.436,7.5,4606.255c0-59.006,1.464-118.714,4.354-177.461,2.868-58.314,7.216-117.247,12.922-175.165,5.66-57.462,12.82-115.551,21.283-172.649,8.4-56.673,18.305-113.847,29.438-169.93,11.067-55.762,23.644-111.947,37.382-167,13.648-54.7,28.828-109.826,45.12-163.854,16.188-53.674,33.9-107.67,52.651-160.494,18.657-52.561,38.836-105.358,59.976-156.927,21.045-51.349,43.617-102.875,67.086-153.146,23.369-50.064,48.266-100.247,74-149.156,25.6-48.673,52.752-97.443,80.7-144.956,27.831-47.318,57.163-94.6,87.187-140.539,29.942-45.813,61.391-91.541,93.469-135.911,32.017-44.282,65.51-88.385,99.55-131.078,33.975-42.618,69.443-85.019,105.417-126.029,35.944-40.973,73.315-81.6,111.077-120.767,37.782-39.186,76.99-77.979,116.529-115.295,36.979-34.9,75.177-69.389,113.661-102.626l-52.292,18.2s-668.263-151.175-767.886-556.7c-41.044-167.077-123-383.026-30.65-649.376S768.51,339.368,768.51,339.368,731.759,668.6,956.724,866.865s737.525,307.012,737.525,307.012S1422.489,760.9,1537.9,477.788,2130.006,0,2130.006,0s-102.078,562.039,323.981,820.293,1380.261,212.723,1380.261,212.723l-66.789,23.249c14.774-1.355,29.57-2.618,44.294-3.779,30.217-2.381,60.848-4.393,91.041-5.977,30.339-1.592,61.178-2.807,91.661-3.608s61.526-1.208,92.253-1.208c30.121,0,60.627.392,90.669,1.167,29.869.769,60.184,1.942,90.1,3.486,29.686,1.533,59.8,3.476,89.509,5.776,29.485,2.286,59.391,4.991,88.885,8.039,29.293,3.028,58.981,6.485,88.24,10.272,29.135,3.773,58.6,7.97,87.563,12.477,28.936,4.5,58.158,9.434,86.857,14.657s57.674,10.874,86.127,16.8c56.7,11.814,113.883,25.255,169.953,39.944,55.711,14.6,111.794,30.817,166.694,48.207,54.556,17.278,109.47,36.2,163.219,56.242,53.434,19.924,107.107,41.475,159.521,64.052,52.171,22.472,104.524,46.576,155.6,71.639,50.854,24.954,101.817,51.534,151.464,79,49.5,27.384,98.99,56.364,147.106,86.135,48,29.7,95.95,61.007,142.526,93.05,46.488,31.986,92.826,65.542,137.723,99.739,44.857,34.162,89.505,69.892,132.7,106.2,43.135,36.253,86.02,74.082,127.46,112.438,41.386,38.307,82.432,78.159,122,118.449,39.533,40.261,78.668,82.062,116.314,124.239s74.793,85.857,110.406,129.8c35.632,43.967,70.718,89.434,104.284,135.14,33.586,45.736,66.539,92.924,97.939,140.254,31.461,47.426,62.205,96.259,91.371,145.146,29.238,49,57.7,99.4,84.583,149.807,26.961,50.544,53.062,102.44,77.574,154.246,24.6,51.984,48.266,105.3,70.348,158.462,22.175,53.387,43.336,108.045,62.9,162.452,19.664,54.688,38.244,110.611,55.228,166.219,17.067,55.872,32.991,112.987,47.336,169.757,14.417,57.062,27.614,115.293,39.224,173.072,5.833,29.031,11.385,58.54,16.5,87.712,5.145,29.346,9.987,59.108,14.391,88.454,4.431,29.533,8.554,59.535,12.251,89.172,3.709,29.7,7.1,59.937,10.087,89.857s5.642,60.383,7.9,90.522c2.253,30.168,4.163,60.836,5.672,91.15s2.662,61.184,3.423,91.757c.761,30.613,1.147,61.678,1.147,92.332s-.386,61.719-1.147,92.333c-.761,30.573-1.912,61.444-3.423,91.754s-3.418,60.985-5.672,91.153c-2.251,30.107-4.907,60.562-7.9,90.52-2.979,29.877-6.374,60.11-10.087,89.859-3.706,29.7-7.828,59.7-12.251,89.17-4.416,29.428-9.257,59.187-14.391,88.456-5.119,29.186-10.671,58.694-16.5,87.708-11.6,57.718-24.793,115.949-39.224,173.074-14.344,56.765-30.27,113.881-47.336,169.759-16.983,55.605-35.565,111.53-55.228,166.217-19.562,54.41-40.725,109.065-62.9,162.45-22.076,53.149-45.742,106.462-70.348,158.462-24.518,51.816-50.617,103.713-77.574,154.248-26.855,50.351-55.312,100.752-84.583,149.809-29.166,48.88-59.907,97.713-91.371,145.143-31.413,47.349-64.365,94.535-97.939,140.252-33.546,45.681-68.631,91.149-104.284,135.142-35.628,43.962-72.774,87.634-110.406,129.8-37.652,42.181-76.785,83.98-116.314,124.239-39.565,40.292-80.612,80.142-122,118.447-15.322,14.183-31.105,28.531-46.912,42.647,31.291-32.208,48.188-51.557,48.343-51.737L5907.157,6989.13c-.348.307-37.717,32.9-99.517,84.346-36.381,30.286-74.045,61.135-111.943,91.69-47.369,38.189-95.252,76.036-142.327,112.488-119.8,92.769-235.07,177.123-342.592,250.717-31.083,21.275-61.924,41.921-91.665,61.365-31.283,20.449-62.231,40.147-91.993,58.546-31.193,19.279-61.906,37.646-91.289,54.584-30.709,17.7-60.834,34.351-89.54,49.476-28.684,15.116-58.638,30.052-89.03,44.4-29.031,13.7-59.258,27.233-89.839,40.219-29.094,12.353-59.289,24.541-89.745,36.222-28.875,11.076-58.733,21.98-88.749,32.411-103.745,36.054-213.738,68.056-326.922,95.119-44.471,10.634-89.542,20.52-133.96,29.383-35.535,7.091-70.742,13.548-104.642,19.2-57.519,9.579-92.074,13.583-92.4,13.62-.354.055-37.817,5.965-91.173,12.682-31.447,3.961-62.364,7.451-91.891,10.368-36.857,3.643-71.556,6.392-103.137,8.173-40.833,2.3-84.889,3.47-130.94,3.47C3357.231,8097.6,3311.894,8095.844,3289.911,8094.8ZM2068.987,2501.027l0,0c-30.817,21.37-61.583,43.763-91.439,66.559-31.451,24.012-62.764,49.132-93.064,74.664-30.282,25.515-60.354,52.112-89.385,79.05-29.052,26.957-57.837,54.975-85.558,83.276s-55.158,57.682-81.568,87.348c-26.4,29.649-52.447,60.352-77.431,91.256-25.015,30.945-49.62,62.911-73.132,95.01-23.567,32.169-46.673,65.345-68.682,98.608-22.031,33.283-43.59,67.616-64.078,102.041-20.52,34.477-40.479,69.913-59.321,105.322-18.944,35.606-37.245,72.093-54.4,108.447-17.238,36.521-33.837,74-49.338,111.4-15.544,37.526-30.384,75.955-44.107,114.215-13.8,38.463-26.827,77.781-38.732,116.859-11.956,39.244-23.125,79.4-33.2,119.348-10.1,40.091-19.359,81.029-27.506,121.681-8.194,40.874-15.485,82.544-21.665,123.853-6.223,41.577-11.495,83.927-15.668,125.87-4.21,42.34-7.409,85.312-9.512,127.723-2.127,42.816-3.207,86.359-3.207,129.425s1.08,86.613,3.207,129.425c2.1,42.413,5.3,85.385,9.512,127.725,4.173,41.943,9.445,84.291,15.668,125.87,6.182,41.313,13.471,82.983,21.665,123.853,8.153,40.678,17.409,81.617,27.506,121.679,10.067,39.94,21.236,80.093,33.2,119.348,11.905,39.076,24.935,78.394,38.732,116.859,13.725,38.268,28.565,76.7,44.107,114.213,15.479,37.359,32.078,74.84,49.338,111.406,17.154,36.353,35.458,72.839,54.4,108.445,18.838,35.4,38.8,70.842,59.321,105.326,20.465,34.388,42.025,68.717,64.078,102.039,22.009,33.263,45.116,66.439,68.682,98.608,23.5,32.082,48.1,64.048,73.132,95.011,25.047,30.979,51.1,61.682,77.431,91.256,26.345,29.595,53.787,58.983,81.568,87.348,27.748,28.328,56.535,56.348,85.558,83.276,29.007,26.918,59.079,53.515,89.385,79.052,30.343,25.562,61.654,50.682,93.064,74.664,31.488,24.041,63.984,47.631,96.585,70.118,32.669,22.531,66.3,44.542,99.952,65.418,33.833,20.988,68.542,41.366,103.162,60.564,34.819,19.308,70.557,37.994,106.222,55.541,35.787,17.6,72.5,34.548,109.125,50.364,36.751,15.869,74.391,31.022,111.87,45.033,37.738,14.1,76.248,27.408,114.463,39.541,38.468,12.214,77.8,23.618,116.9,33.892,39.257,10.313,79.357,19.764,119.185,28.083,40.078,8.371,80.895,15.812,121.314,22.117,40.751,6.357,82.231,11.739,123.289,16,41.479,4.3,83.571,7.565,125.107,9.713,41.984,2.17,84.635,3.27,126.771,3.27,29.743,0,59.872-.547,89.55-1.627,29.5-1.078,59.362-2.711,88.747-4.856,29.188-2.131,58.756-4.832,87.885-8.025,29.037-3.187,58.3-6.935,86.975-11.139l.069-.01.071.01c.173.026.35.053.527.078l.264.039.893.132.256.035.1.014c.039.008.075.012.116.019l.114.016.1.014.267.039.689.1c-.669-.65-1.029-1.027-1.082-1.084l0,0c1.163-.145,28.982-3.636,74.5-12.359,27.585-5.286,56.374-11.448,85.568-18.312,36.5-8.578,73.87-18.319,111.059-28.95a2532.7,2532.7,0,0,0,278.42-97.451c26.036-10.864,52.163-22.3,77.661-34,26.737-12.266,53.527-25.159,79.622-38.325,27.307-13.783,54.542-28.216,80.952-42.9,27.6-15.346,55.075-31.4,81.653-47.7,26.6-16.322,53.952-34.014,81.3-52.577,26.219-17.8,53.121-36.865,79.961-56.663,25.678-18.944,51.947-39.033,78.082-59.712,24.97-19.761,50.428-40.532,75.66-61.733,87.625-73.618,177.685-156.557,267.683-246.507,35.348-35.328,70.783-71.849,105.323-108.555,27.642-29.375,54.75-58.9,80.567-87.76,41.618-46.517,66.828-76.74,69.565-80.035l.033-.039.006-.008.021-.022,489.9,258.24c22.67-25.82,45.069-52.4,66.576-79,25.163-31.13,49.915-63.285,73.563-95.57,23.719-32.381,46.964-65.75,69.087-99.184,22.188-33.534,43.875-68.068,64.454-102.646,20.62-34.642,40.694-70.287,59.669-105.946,19-35.7,37.408-72.4,54.725-109.08,17.368-36.8,34.063-74.5,49.622-112.065,15.664-37.812,30.591-76.465,44.368-114.886,13.872-38.671,26.979-78.221,38.961-117.546,12.058-39.586,23.292-79.975,33.39-120.047,10.176-40.392,19.489-81.57,27.67-122.4,8.23-41.052,15.562-82.967,21.793-124.585,6.26-41.831,11.562-84.427,15.757-126.608,4.23-42.541,7.45-85.768,9.571-128.478,2.137-43.08,3.223-86.88,3.223-130.186s-1.086-87.1-3.223-130.187c-2.121-42.73-5.343-85.957-9.571-128.477-4.2-42.181-9.5-84.779-15.757-126.608-6.233-41.624-13.564-83.539-21.793-124.583-8.214-40.969-17.524-82.149-27.67-122.394-10.1-40.086-21.336-80.478-33.39-120.052-11.979-39.313-25.085-78.861-38.961-117.546-13.8-38.479-28.726-77.134-44.368-114.886-15.547-37.53-32.244-75.231-49.622-112.061-17.276-36.6-35.689-73.307-54.725-109.084-18.987-35.679-39.063-71.324-59.669-105.94s-42.281-69.14-64.454-102.647c-22.112-33.42-45.358-66.789-69.087-99.184-23.618-32.247-48.368-64.4-73.563-95.572-25.157-31.118-51.363-62-77.887-91.793s-54.129-59.356-82.05-87.862c-27.886-28.468-56.84-56.651-86.058-83.766-29.277-27.162-59.528-53.914-89.914-79.514-30.447-25.655-61.94-50.922-93.609-75.1s-64.356-47.91-97.154-70.533c-32.923-22.706-66.752-44.845-100.542-65.8-33.926-21.047-68.841-41.54-103.772-60.916-35.057-19.442-71.007-38.238-106.845-55.868-36-17.711-72.935-34.758-109.765-50.662-36.987-15.973-74.849-31.211-112.529-45.3-37.906-14.167-76.646-27.547-115.14-39.773-38.747-12.3-78.31-23.776-117.589-34.091-39.5-10.376-79.835-19.879-119.891-28.248-40.3-8.42-81.36-15.906-122.024-22.249-41.014-6.4-82.737-11.81-124.015-16.089-24.728-2.564-49.962-4.787-75-6.605l32.1-6.457h-2667.7l364.07,463.333,3.15-.635Z" transform="translate(-7.5)" fill="url(#linear-gradient)"/>
    <path id="Subtraction_9" data-name="Subtraction 9" d="M2393.216,1224.191,809.732,812.2,0,10.921l.194-.009c7.581-.289,77.12-2.9,182.914-5.451C248.756,3.875,315.49,2.612,381.456,1.707,463.943.574,545.5,0,623.855,0,800.313,0,962.217,2.885,1105.07,8.574c83.767,3.336,161.984,7.69,232.479,12.94,37.716,2.809,73.976,5.932,107.773,9.282,35.243,3.493,68.779,7.33,99.677,11.4a356.951,356.951,0,0,0-189.952,315.887,363.329,363.329,0,0,0,1.846,36.552,356.964,356.964,0,0,0,319.1,319.1,362.889,362.889,0,0,0,73.1,0,356.968,356.968,0,0,0,319.1-319.1,363.328,363.328,0,0,0,1.845-36.552c0-3.393-.048-6.827-.143-10.207,16.086,18.773,58.656,70.111,106.426,141.175,27.032,40.213,51.634,80.679,73.122,120.274,12.429,22.9,23.984,45.836,34.345,68.166,11.257,24.261,21.394,48.433,30.128,71.845,9.827,26.34,18.934,54.543,27.069,83.826,7.4,26.622,14.154,54.736,20.089,83.561,9.995,48.547,17.865,99.981,23.393,152.876,2.172,20.785,3.984,41.842,5.383,62.588,1.12,16.593,1.98,33.035,2.558,48.87.978,26.8.8,42.97.8,43.131Z" transform="translate(3461.77 3226.184)" fill="url(#linear-gradient)"/>
  </g>
</svg>
